<svg width="24" height="30" viewBox="0 0 24 30" fill="none" xmlns="http://www.w3.org/2000/svg">
<path d="M11.9659 6.71291C11.9256 4.69702 13.0424 0.532195 17.8321 0C17.9128 2.09652 16.8524 6.37424 11.9659 6.71291Z" fill="#282828"/>
<path d="M14.5052 7.68045C13.6344 8.21265 12.57 8.38601 12.1467 8.40617C11.7596 8.45158 10.8968 8.14286 10.5138 7.98283C9.73968 7.49902 8.78012 7.29743 8.3971 7.25711C2.63972 6.33786 0.474662 11.6316 0.111803 14.3934C-0.662298 20.0056 2.77278 25.5211 4.58708 27.5773C6.28042 29.706 8.43742 29.4319 9.30426 29.0287C11.6749 27.674 13.9206 28.182 14.7472 28.6054C16.4405 29.573 17.8315 29.3714 18.3153 29.1497C21.2182 28.0853 23.3147 23.5455 24.0001 21.4086C21.5326 20.441 20.432 17.9816 20.1901 16.8729C19.3192 13.3411 21.8834 10.8454 23.2744 10.039C20.5166 6.12015 16.2792 6.83378 14.5052 7.68045Z" fill="#282828"/>
</svg>
